<svg width="24" height="24" viewBox="0 0 24 24" fill="none" xmlns="http://www.w3.org/2000/svg">
<path fill-rule="evenodd" clip-rule="evenodd" d="M6.72 20.492C8.252 21.448 10.062 22 12 22C13.934 22 15.741 21.45 17.272 20.497L18.512 22.079C16.636 23.294 14.4 24 12 24C9.597 24 7.358 23.292 5.48 22.074L6.72 20.492V20.492ZM13.125 19.5L12.531 19.891C12.454 19.96 12.341 20 12.224 20H11.777C11.659 20 11.546 19.96 11.469 19.891L10.875 19.5H13.125V19.5ZM24 19H18C18 17.895 18.895 17 20 17H22C22.53 17 23.039 17.211 23.414 17.586C23.789 17.961 24 18.469 24 19ZM6 19H0C0 17.895 0.895 17 2 17H4C4.53 17 5.039 17.211 5.414 17.586C5.789 17.961 6 18.469 6 19ZM13.146 18.5C13.284 18.5 13.396 18.612 13.396 18.75C13.396 18.888 13.284 19 13.146 19H10.867C10.729 19 10.617 18.888 10.617 18.75C10.617 18.612 10.729 18.5 10.867 18.5H13.146ZM13.393 18C13.393 15.998 15 15.17 15 13.386C15 11.526 13.499 10.5 11.999 10.5C10.499 10.5 9 11.524 9 13.386C9 15.17 10.607 16.025 10.607 18H13.393V18ZM21 12C22.242 12 23.25 13.008 23.25 14.25C23.25 15.492 22.242 16.5 21 16.5C19.758 16.5 18.75 15.492 18.75 14.25C18.75 13.008 19.758 12 21 12ZM3 12C4.242 12 5.25 13.008 5.25 14.25C5.25 15.492 4.242 16.5 3 16.5C1.758 16.5 0.75 15.492 0.75 14.25C0.75 13.008 1.758 12 3 12ZM15.87 14.385L17.219 14.997L16.806 15.908L15.508 15.32C15.658 15.02 15.783 14.712 15.87 14.385V14.385ZM8.131 14.385C8.218 14.717 8.339 15.016 8.491 15.32L7.195 15.908L6.781 14.997L8.131 14.385ZM17.5 12.5V13.5H15.999C16.009 13.165 15.979 12.828 15.906 12.5H17.5ZM8.094 12.5C8.022 12.827 7.992 13.163 8.002 13.497V13.5H6.5V12.5H8.094ZM15.022 10.786L16.264 9.904L16.843 10.72L15.591 11.608C15.445 11.317 15.256 11.042 15.022 10.786V10.786ZM8.978 10.785C8.748 11.037 8.56 11.31 8.409 11.608L7.158 10.72L7.736 9.904L8.978 10.785V10.785ZM13.413 9.739L14.076 8.394L14.973 8.837L14.309 10.182C14.031 9.998 13.729 9.85 13.413 9.739ZM10.587 9.738C10.272 9.848 9.969 9.996 9.69 10.18L9.027 8.837L9.924 8.394L10.587 9.738ZM8 0.684V2.833C5.062 4.118 2.859 6.775 2.202 9.991L0.168 9.988C0.9 5.66 3.953 2.116 8 0.684ZM16 0.684C20.047 2.116 23.1 5.66 23.832 9.988L21.798 9.991C21.141 6.775 18.938 4.118 16 2.833V0.684V0.684ZM12.5 9.53C12.166 9.491 11.846 9.489 11.5 9.529V8H12.5V9.53ZM15 7H9C9 5.895 9.895 5 11 5H13C13.53 5 14.039 5.211 14.414 5.586C14.789 5.961 15 6.47 15 7ZM12 0C13.242 0 14.25 1.008 14.25 2.25C14.25 3.492 13.242 4.5 12 4.5C10.758 4.5 9.75 3.492 9.75 2.25C9.75 1.008 10.758 0 12 0Z" fill="#B8AC79"/>
</svg>
