<svg width="162" height="882" viewBox="0 0 162 882" fill="none" xmlns="http://www.w3.org/2000/svg">
<path d="M136.15 834.15C136.15 841.95 134.6 849.45 131.5 856.65C128.5 863.75 124.05 869.45 118.15 873.75C112.25 877.95 105.8 880.5 98.8 881.4C95.8 881.8 92.5 882 88.9 882C85.3 882 80.55 881.55 74.65 880.65C68.75 879.75 62.35 877.8 55.45 874.8C48.55 871.7 42.45 868.05 37.15 863.85C30.45 865.55 24.3 866.4 18.7 866.4C13 866.4 7.69999 865.75 2.79999 864.45C1.99999 864.25 1.44999 863.95 1.15 863.55C0.749994 863.05 0.549994 862.7 0.549994 862.5C0.549994 861.5 1.79999 861.2 4.29999 861.6C6.7 862 10.2 862.2 14.8 862.2C19.3 862.2 25.05 861.55 32.05 860.25C21.75 852.25 14.25 842.85 9.54999 832.05C5.94999 823.75 4.14999 815.05 4.14999 805.95C4.14999 803.35 4.29999 800.65 4.59999 797.85C6.29999 782.45 12.2 772.05 22.3 766.65C26.5 764.45 30.85 763.35 35.35 763.35C39.85 763.35 44.5 764.4 49.3 766.5C58.9 770.9 66 778.45 70.6 789.15C73.6 796.05 75.1 803.6 75.1 811.8C75.1 815.3 74.85 818.85 74.35 822.45C71.75 840.35 63.25 852.75 48.85 859.65C52.25 862.05 57.95 864.55 65.95 867.15C73.95 869.65 80.1 871.1 84.4 871.5C88.7 871.9 92.3 872.1 95.2 872.1C98.1 872.1 101.1 871.9 104.2 871.5C109.7 870.8 114.7 868.7 119.2 865.2C123.6 861.7 126.65 857.05 128.35 851.25C130.15 845.35 131.05 840.25 131.05 835.95C131.05 822.05 128.15 810.2 122.35 800.4C118.85 794.5 114.9 789.9 110.5 786.6C106 783.2 99.85 779.6 92.05 775.8C90.75 775.2 90.3 774.6 90.7 774C91.1 773.3 92.05 773.3 93.55 774C101.25 777.8 107.35 781.35 111.85 784.65C116.35 787.85 120.55 792.25 124.45 797.85C132.25 809.05 136.15 821.15 136.15 834.15ZM44.05 856.65C62.15 849.55 71.2 834.75 71.2 812.25C71.2 799.55 67.65 789.4 60.55 781.8C53.45 774.1 45.4 770.25 36.4 770.25C27.4 770.25 20.4 774.15 15.4 781.95C11.7 787.75 9.84999 794.9 9.84999 803.4C9.84999 811.9 12.3 820.45 17.2 829.05C23.5 839.85 32.45 849.05 44.05 856.65ZM114.25 735.756C117.05 735.756 118.45 734.756 118.45 732.756C118.45 728.056 109.65 721.406 92.05 712.806C90.65 712.106 90.1 711.506 90.4 711.006C90.7 710.406 91.1 710.106 91.6 710.106C92.1 710.106 93.55 710.706 95.95 711.906C98.25 713.006 100.5 714.156 102.7 715.356C104.8 716.456 107.6 718.106 111.1 720.306C118.1 724.906 121.6 729.806 121.6 735.006C121.6 738.406 120.2 741.106 117.4 743.106C116.1 744.006 114.35 744.456 112.15 744.456C109.85 744.456 107.1 743.956 103.9 742.956C100.7 741.956 95.5 739.206 88.3 734.706C86.5 733.606 85.1 733.056 84.1 733.056C83 733.056 82.45 733.906 82.45 735.606C82.45 737.306 84.7 740.556 89.2 745.356C95.8 752.556 105.7 759.556 118.9 766.356C120.4 767.056 121.15 768.906 121.15 771.906C121.35 774.606 121.65 776.306 122.05 777.006C82.55 758.006 55 744.256 39.4 735.756C35.9 733.856 33.45 732.206 32.05 730.806C30.65 729.306 29.95 727.556 29.95 725.556C29.95 725.056 30.1 724.006 30.4 722.406C30.6 720.806 30.65 719.606 30.55 718.806C33.65 721.806 42.25 727.206 56.35 735.006C70.35 742.706 84.6 750.106 99.1 757.206C93.2 752.506 88.6 748.306 85.3 744.606C82 740.806 78.9 736.206 76 730.806C73 725.406 71.5 721.456 71.5 718.956C71.5 718.356 71.6 717.806 71.8 717.306C93.4 729.606 107.55 735.756 114.25 735.756ZM80.35 653.551C82.15 655.351 86.25 657.901 92.65 661.201C98.95 664.501 103.7 666.501 106.9 667.201C110 667.801 112.55 668.101 114.55 668.101C116.45 668.101 117.4 667.351 117.4 665.851C117.4 663.951 115.65 661.601 112.15 658.801C107.05 654.701 100.4 650.651 92.2 646.651C91.3 646.251 90.8 645.801 90.7 645.301C90.4 644.501 90.7 644.101 91.6 644.101C92.1 644.101 92.7 644.251 93.4 644.551C112 653.751 121.3 661.501 121.3 667.801C121.3 670.701 119.9 673.051 117.1 674.851C115.6 675.751 113.6 676.201 111.1 676.201C108.6 676.201 105.55 675.701 101.95 674.701C114.85 682.701 121.3 689.601 121.3 695.401C121.3 697.001 120.8 698.451 119.8 699.751C117.7 702.751 114.1 704.251 109 704.251C99.2 704.251 89.25 700.001 79.15 691.501C73.55 686.701 69.9 680.801 68.2 673.801C67.7 671.901 67.45 670.101 67.45 668.401C67.45 663.801 69.05 659.901 72.25 656.701C73.35 655.701 74.4 655.401 75.4 655.801C76.4 656.201 76.8 657.051 76.6 658.351C73 659.451 71.2 661.851 71.2 665.551C71.2 669.851 74.6 675.151 81.4 681.451C85.4 685.051 90.1 688.401 95.5 691.501C102 695.401 107.2 697.351 111.1 697.351C115 697.351 116.95 696.101 116.95 693.601C116.95 687.601 107.75 679.751 89.35 670.051C85.65 668.151 83.15 666.551 81.85 665.251C80.45 663.951 79.75 662.301 79.75 660.301C79.75 659.901 79.9 658.901 80.2 657.301C80.5 655.601 80.55 654.351 80.35 653.551ZM80.2 588.21C84.6 588.21 89.45 589.36 94.75 591.66C100.05 593.96 105.15 597.16 110.05 601.26C114.95 605.26 118.3 610.16 120.1 615.96C120.7 618.16 121 620.71 121 623.61C121 626.41 120.1 629.51 118.3 632.91L153.85 647.16C157.05 648.66 159.15 650.06 160.15 651.36C161.15 652.66 161.65 653.91 161.65 655.11C161.65 656.31 161.65 657.01 161.65 657.21C161.65 657.51 161.5 658.41 161.2 659.91C160.9 661.51 160.8 662.71 160.9 663.51C158.8 661.31 148.8 655.71 130.9 646.71C113.1 637.81 101.1 632.76 94.9 631.56C96.5 632.66 97.35 633.71 97.45 634.71C97.45 635.31 96.9 635.31 95.8 634.71C94.6 634.11 92.35 633.11 89.05 631.71C84.75 629.91 80.8 629.01 77.2 629.01C73.5 629.01 71.35 629.71 70.75 631.11C69.75 625.11 69.3 621.61 69.4 620.61C69.4 619.61 69.8 619.01 70.6 618.81C71.4 618.51 72.3 618.36 73.3 618.36C79.4 618.36 86.2 619.76 93.7 622.56L88.9 619.56C83.1 615.96 79.35 613.36 77.65 611.76C75.95 610.06 74.2 608.26 72.4 606.36C69.6 603.46 68.2 600.66 68.2 597.96C68.2 597.16 68.3 596.41 68.5 595.71C69.8 590.71 73.7 588.21 80.2 588.21ZM78.7 595.41C77.1 595.41 75.65 595.76 74.35 596.46C72.95 597.06 72.25 598.06 72.25 599.46C72.25 602.96 75.5 607.06 82 611.76C88.5 616.36 99.85 623.01 116.05 631.71C117.35 630.41 118 628.61 118 626.31C118 624.01 116.25 620.76 112.75 616.56C107.15 609.86 100.2 604.26 91.9 599.76C86.5 596.86 82.1 595.41 78.7 595.41ZM92.05 561.069C92.45 561.169 93.85 561.619 96.25 562.419C98.55 563.219 100.8 563.919 103 564.519C105.1 565.019 107.25 565.269 109.45 565.269C111.55 565.269 113.55 564.769 115.45 563.769C117.25 562.769 118.15 561.169 118.15 558.969C118.15 555.369 115.75 551.869 110.95 548.469C106.05 545.069 99.85 541.469 92.35 537.669C90.95 536.869 90.4 536.119 90.7 535.419C91.1 534.919 91.65 534.819 92.35 535.119C92.95 535.419 94.35 536.069 96.55 537.069C98.65 537.969 100.15 538.669 101.05 539.169C101.85 539.569 103.35 540.369 105.55 541.569C107.65 542.669 109.25 543.669 110.35 544.569C111.35 545.369 112.7 546.519 114.4 548.019C116 549.419 117.2 550.769 118 552.069C120.2 555.569 121.3 558.869 121.3 561.969C121.3 565.069 120.65 567.469 119.35 569.169C117.95 570.869 116.5 571.919 115 572.319C113.4 572.619 112 572.769 110.8 572.769C109.6 572.769 108.05 572.719 106.15 572.619C102.95 572.319 99.85 571.719 96.85 570.819C93.85 569.819 92.15 569.269 91.75 569.169C83.45 566.869 74.4 563.619 64.6 559.419C54.8 555.119 47.45 551.519 42.55 548.619C37.55 545.619 34.15 543.269 32.35 541.569C28.75 538.169 26.95 534.819 26.95 531.519C26.95 529.219 28.6 527.669 31.9 526.869C32.5 526.769 33.25 526.719 34.15 526.719C37.55 526.719 41.85 527.919 47.05 530.319C66.15 538.919 81.15 549.169 92.05 561.069ZM87.25 559.869C82.05 554.769 75.5 549.719 67.6 544.719C59.7 539.719 53 536.069 47.5 533.769C41.9 531.369 38.1 530.169 36.1 530.169C34.1 530.169 33.1 530.519 33.1 531.219C33.1 532.219 35.1 534.119 39.1 536.919C43 539.719 50.1 543.519 60.4 548.319C70.6 553.019 79.55 556.869 87.25 559.869ZM62.65 503.482C63.85 504.882 64.45 506.432 64.45 508.132C64.45 509.832 63.85 511.182 62.65 512.182C61.45 513.182 60 513.582 58.3 513.382C56.6 513.082 55.15 512.232 53.95 510.832C52.75 509.432 52.15 507.882 52.15 506.182C52.15 504.482 52.75 503.132 53.95 502.132C55.15 501.032 56.6 500.632 58.3 500.932C60 501.232 61.45 502.082 62.65 503.482ZM117.7 518.182C117.7 516.282 116.75 514.282 114.85 512.182C111.15 508.482 103.6 503.782 92.2 498.082C90.7 497.382 90.25 496.682 90.85 495.982C91.05 495.782 91.4 495.682 91.9 495.682C92.3 495.682 93.4 496.082 95.2 496.882C96.9 497.682 98.45 498.432 99.85 499.132C101.25 499.732 103.55 500.982 106.75 502.882C109.85 504.682 112.25 506.332 113.95 507.832C118.65 511.932 121 515.832 121 519.532C121 523.132 119.9 525.732 117.7 527.332C115.5 528.932 113.05 529.732 110.35 529.732C107.65 529.732 104.7 529.082 101.5 527.782L77.05 518.182C76.45 517.982 75.65 517.882 74.65 517.882C73.65 517.882 72.35 518.482 70.75 519.682L70.6 511.432C70.6 509.132 71.05 507.782 71.95 507.382C72.75 506.982 74.05 507.282 75.85 508.282L103.9 520.282C107.6 521.982 110.75 522.832 113.35 522.832C116.25 522.832 117.7 521.282 117.7 518.182ZM71.8 439.158C93.4 451.458 107.5 457.608 114.1 457.608C116.7 457.608 118 456.658 118 454.758C118 449.658 109.35 442.808 92.05 434.208C90.65 433.608 90.1 433.008 90.4 432.408C90.7 431.808 91.1 431.508 91.6 431.508C92.1 431.508 92.7 431.708 93.4 432.108C104.1 437.408 111.5 441.908 115.6 445.608C119.6 449.208 121.6 452.858 121.6 456.558C121.6 460.158 120.2 462.908 117.4 464.808C116.1 465.808 114.35 466.308 112.15 466.308C109.85 466.308 107.1 465.808 103.9 464.808C100.7 463.808 95.5 461.058 88.3 456.558C86.5 455.458 85.1 454.908 84.1 454.908C83 454.908 82.45 455.758 82.45 457.458C82.45 459.158 84.7 462.408 89.2 467.208C95.8 474.408 105.7 481.358 118.9 488.058C119.9 488.658 120.55 489.358 120.85 490.158C121.05 490.858 121.2 492.308 121.3 494.508C121.4 496.708 121.65 498.158 122.05 498.858C118.85 497.258 112.3 494.108 102.4 489.408C84.9 481.008 74.9 475.508 72.4 472.908C71.2 471.708 70.6 470.058 70.6 467.958C70.6 467.558 70.75 466.558 71.05 464.958C71.35 463.258 71.4 462.008 71.2 461.208C73.2 464.908 82.6 470.958 99.4 479.358C93.6 474.658 89 470.408 85.6 466.608C82.1 462.708 78.9 458.058 76 452.658C73 447.258 71.5 443.308 71.5 440.808C71.5 440.208 71.6 439.658 71.8 439.158ZM42.85 178.045C32.05 173.145 23.9 168.845 18.4 165.145C12.8 161.445 9.44996 157.995 8.34996 154.795C7.14996 151.495 6.54997 149.295 6.54997 148.195C6.54997 146.995 6.69996 146.395 6.99996 146.395C7.29996 146.395 7.79996 147.045 8.49996 148.345C9.09996 149.645 11.7 151.895 16.3 155.095C20.9 158.195 27.95 162.145 37.45 166.945C46.95 171.745 57 175.945 67.6 179.545C67.6 173.445 67.3 169.595 66.7 167.995C66.1 166.295 66 165.295 66.4 164.995C66.8 164.595 67.45 165.045 68.35 166.345C70.65 169.645 72 174.495 72.4 180.895C72.6 180.995 75 181.795 79.6 183.295C95.1 188.295 105.95 190.795 112.15 190.795C115.65 190.795 118.1 190.195 119.5 188.995C120.9 187.695 121.6 186.345 121.6 184.945C121.6 183.545 121 181.995 119.8 180.295C115.6 174.595 106.55 168.345 92.65 161.545C90.95 160.745 90.25 159.995 90.55 159.295C90.85 158.495 91.9 158.495 93.7 159.295C101.6 162.995 107.4 166.095 111.1 168.595C114.8 170.995 118.2 173.745 121.3 176.845C125.2 180.945 127.15 185.045 127.15 189.145C127.15 193.745 125.25 196.945 121.45 198.745C119.65 199.645 118 200.095 116.5 200.095C115 200.095 113.45 200.095 111.85 200.095C110.15 199.995 108 199.795 105.4 199.495C102.7 199.195 99.4 198.495 95.5 197.395C91.5 196.195 88.5 195.295 86.5 194.695C84.4 193.995 81.6 192.995 78.1 191.695C74.6 190.395 72.7 189.695 72.4 189.595C72.4 193.895 71.75 210.845 70.45 240.445C88.65 246.545 104.95 256.145 119.35 269.245C126.45 275.645 132.4 283.095 137.2 291.595C143.5 302.995 146.65 314.995 146.65 327.595C146.65 332.895 145.85 338.795 144.25 345.295C142.75 351.795 139.8 357.945 135.4 363.745C131.1 369.545 125.25 373.695 117.85 376.195C110.45 378.595 102.25 378.645 93.25 376.345C88.65 375.145 84.35 372.495 80.35 368.395C76.35 364.195 74.3 360.745 74.2 358.045C74.2 357.045 74.35 356.445 74.65 356.245C74.85 356.045 75.15 356.145 75.55 356.545C75.85 356.845 76.1 357.245 76.3 357.745C77.6 360.745 80.45 363.845 84.85 367.045C90.65 371.245 97.4 373.345 105.1 373.345C117.1 373.345 126.05 367.545 131.95 355.945C135.45 348.945 137.2 340.745 137.2 331.345C137.2 327.245 136.8 323.395 136 319.795C128.4 285.895 106.45 262.045 70.15 248.245C70.15 250.845 70.75 253.395 71.95 255.895C73.05 258.295 73.6 259.895 73.6 260.695C73.6 261.395 73.3 261.795 72.7 261.895C71 261.895 69.4 260.695 67.9 258.295C66.3 255.895 65.4 253.795 65.2 251.995L65.2 246.145C49.2 239.745 33 232.445 16.6 224.245C16.9 226.845 17.25 230.545 17.65 235.345C18.05 240.145 18.4 244.045 18.7 247.045C19 250.045 19.5 253.745 20.2 258.145C20.9 262.545 21.75 266.195 22.75 269.095C23.65 271.995 24.95 275.245 26.65 278.845C28.35 282.345 30.3 285.295 32.5 287.695C37.9 293.395 44.5 297.445 52.3 299.845C55.5 300.845 58.9 301.345 62.5 301.345C66.1 301.345 69.6 300.045 73 297.445C76.4 294.845 78.1 291.395 78.1 287.095C78.1 278.595 73.2 272.545 63.4 268.945C58.8 267.245 55.6 266.395 53.8 266.395C51.9 266.395 50.5 266.745 49.6 267.445C48.6 268.045 48 267.845 47.8 266.845C47.7 266.145 48.1 265.545 49 265.045C51.6 263.845 54.4 263.245 57.4 263.245C60.4 263.245 63.65 264.245 67.15 266.245C73.35 269.645 77.5 274.245 79.6 280.045C80.6 282.845 81.1 285.645 81.1 288.445C81.1 291.245 80.5 294.045 79.3 296.845C77 302.145 73.1 306.045 67.6 308.545C64.3 310.145 61.15 310.945 58.15 310.945C55.15 310.945 51.75 310.495 47.95 309.595C44.05 308.595 40.1 306.695 36.1 303.895C32.1 301.095 28.9 297.595 26.5 293.395C24 289.195 21.95 284.995 20.35 280.795C18.75 276.595 17.55 271.645 16.75 265.945C15.95 260.145 15.35 255.145 14.95 250.945C14.55 246.645 14.2 241.495 13.9 235.495C13.6 229.495 13.3 225.045 13 222.145C11.1 221.045 8.79997 219.395 6.09997 217.195C3.29997 214.895 1.69997 212.945 1.29996 211.345C0.799965 209.745 0.549965 208.495 0.549965 207.595C0.549965 203.895 2.14997 202.045 5.34997 202.045C8.44997 202.045 11.05 204.095 13.15 208.195C15.25 212.295 16.3 216.145 16.3 219.745C21.5 222.445 30.8 226.295 44.2 231.295C57.5 236.195 64.5 238.795 65.2 239.095C65.2 231.595 65.65 221.945 66.55 210.145C67.35 198.245 67.75 190.945 67.75 188.245C61.95 186.245 53.65 182.845 42.85 178.045ZM5.19997 209.545C5.19997 210.745 7.64997 213.245 12.55 217.045C11.55 210.545 9.79997 207.345 7.29997 207.445C6.19996 207.545 5.54996 208.095 5.34997 209.095C5.24997 209.195 5.19997 209.345 5.19997 209.545ZM80.35 102.166C82.15 103.966 86.25 106.516 92.65 109.816C98.95 113.116 103.7 115.116 106.9 115.816C110 116.416 112.55 116.716 114.55 116.716C116.45 116.716 117.4 115.966 117.4 114.466C117.4 112.566 115.65 110.216 112.15 107.416C107.05 103.316 100.4 99.2664 92.2 95.2664C91.3 94.8664 90.8 94.4164 90.7 93.9164C90.4 93.1164 90.7 92.7164 91.6 92.7164C92.1 92.7164 92.7 92.8664 93.4 93.1664C112 102.366 121.3 110.116 121.3 116.416C121.3 119.316 119.9 121.666 117.1 123.466C115.6 124.366 113.6 124.816 111.1 124.816C108.6 124.816 105.55 124.316 101.95 123.316C114.85 131.316 121.3 138.216 121.3 144.016C121.3 145.616 120.8 147.066 119.8 148.366C117.7 151.366 114.1 152.866 109 152.866C99.2 152.866 89.25 148.616 79.15 140.116C73.55 135.316 69.9 129.416 68.2 122.416C67.7 120.516 67.45 118.716 67.45 117.016C67.45 112.416 69.05 108.516 72.25 105.316C73.35 104.316 74.4 104.016 75.4 104.416C76.4 104.816 76.8 105.666 76.6 106.966C73 108.066 71.2 110.466 71.2 114.166C71.2 118.466 74.6 123.766 81.4 130.066C85.4 133.666 90.1 137.016 95.5 140.116C102 144.016 107.2 145.966 111.1 145.966C115 145.966 116.95 144.716 116.95 142.216C116.95 136.216 107.75 128.366 89.35 118.666C85.65 116.766 83.15 115.166 81.85 113.866C80.45 112.566 79.75 110.916 79.75 108.916C79.75 108.516 79.9 107.516 80.2 105.916C80.5 104.216 80.55 102.966 80.35 102.166ZM62.65 61.275C63.85 62.675 64.45 64.225 64.45 65.925C64.45 67.625 63.85 68.975 62.65 69.975C61.45 70.975 60 71.375 58.3 71.175C56.6 70.875 55.15 70.025 53.95 68.625C52.75 67.225 52.15 65.675 52.15 63.975C52.15 62.275 52.75 60.925 53.95 59.925C55.15 58.825 56.6 58.425 58.3 58.725C60 59.025 61.45 59.875 62.65 61.275ZM117.7 75.975C117.7 74.075 116.75 72.075 114.85 69.975C111.15 66.275 103.6 61.575 92.2 55.875C90.7 55.175 90.25 54.475 90.85 53.775C91.05 53.575 91.4 53.475 91.9 53.475C92.3 53.475 93.4 53.875 95.2 54.675C96.9 55.475 98.45 56.225 99.85 56.925C101.25 57.525 103.55 58.775 106.75 60.675C109.85 62.475 112.25 64.125 113.95 65.625C118.65 69.725 121 73.625 121 77.325C121 80.925 119.9 83.525 117.7 85.125C115.5 86.725 113.05 87.525 110.35 87.525C107.65 87.525 104.7 86.875 101.5 85.575L77.05 75.975C76.45 75.775 75.65 75.675 74.65 75.675C73.65 75.675 72.35 76.275 70.75 77.475L70.6 69.225C70.6 66.925 71.05 65.575 71.95 65.175C72.75 64.775 74.05 65.075 75.85 66.075L103.9 78.075C107.6 79.775 110.75 80.625 113.35 80.625C116.25 80.625 117.7 79.075 117.7 75.975ZM60.85 22.0008C65.35 22.0008 69.6 24.8508 73.6 30.5508C73.7 28.5508 73.75 25.9008 73.75 22.6008C73.75 19.2008 73.5 14.9508 73 9.85078C73.3 9.65078 74.1 9.55078 75.4 9.55078C76.7 9.55078 78.65 10.1508 81.25 11.3508C83.75 12.5508 85.95 13.6508 87.85 14.6508C89.65 15.5508 91.4 16.4508 93.1 17.3508C94.7 18.1508 96.7 19.1008 99.1 20.2008C101.5 21.2008 103.7 22.0508 105.7 22.7508C113.3 25.2508 117.1 24.8508 117.1 21.5508C117.1 17.3508 108.75 11.1508 92.05 2.95078C90.75 2.25078 90.25 1.70078 90.55 1.30078C90.85 0.800776 91.25 0.550777 91.75 0.550777C92.15 0.550777 93.7 1.20078 96.4 2.50077C99 3.80077 101.7 5.20078 104.5 6.70078C107.3 8.20078 110.55 10.5508 114.25 13.7508C118.85 17.5508 121.15 21.2008 121.15 24.7008C121.15 28.6008 118.8 31.3008 114.1 32.8008C113.2 33.1008 111.85 33.2508 110.05 33.2508C108.25 33.2508 105.85 32.7008 102.85 31.6008C99.85 30.4008 96.2 28.5508 91.9 26.0508C87.6 23.5508 85.1 22.1508 84.4 21.8508C83.6 21.5508 82.85 21.4008 82.15 21.4008C79.05 21.4008 77.4 25.4008 77.2 33.4008L82 35.2008C98.5 41.5008 109.55 47.5508 115.15 53.3508C116.05 54.3508 115.75 54.8508 114.25 54.8508C113.95 54.8508 113.6 54.7508 113.2 54.5508C105.8 48.9508 97.05 44.1008 86.95 40.0008C76.85 35.9008 67.25 33.0508 58.15 31.4508C55.05 30.8508 53.5 29.4508 53.5 27.2508C53.5 25.0508 54.9 23.4508 57.7 22.4508C58.6 22.1508 59.65 22.0008 60.85 22.0008Z" fill="#B8AC79"/>
</svg>
