<svg width="24" height="24" viewBox="0 0 24 24" fill="none" xmlns="http://www.w3.org/2000/svg">
<g clip-path="url(#clip0)">
<path fill-rule="evenodd" clip-rule="evenodd" d="M15.517 24.0001H3.87099C4.39299 20.9651 4.76799 17.8381 3.44899 15.9721C1.78299 13.6151 1.01899 11.2301 0.999986 9.08912C0.954986 3.89912 5.23099 -0.0248812 11.203 0.000118786C18.439 0.0301188 20.531 6.15612 20.976 7.94312C21.316 9.31212 20.078 9.81212 20.81 10.6451C21.406 11.3241 21.845 12.0091 22.599 12.8221C22.891 13.1371 23.004 13.4681 23 13.7651C22.994 14.1991 22.709 14.5631 22.252 14.7231C21.823 14.8731 21.492 15.0431 21.037 15.1661C20.892 16.3261 20.516 17.7381 20.239 18.7231C19.502 21.3431 17.343 19.7821 16.358 21.3301C15.932 21.9981 15.718 23.0681 15.517 24.0001V24.0001ZM11.673 5.00012H10.327C10.084 5.68112 10.015 6.12212 9.48499 6.34112C8.95499 6.56112 8.59699 6.30012 7.93999 5.98812L6.98799 6.94012C7.29899 7.59412 7.56099 7.95512 7.34099 8.48512C7.12199 9.01512 6.68099 9.08412 5.99999 9.32612V10.6731C6.67999 10.9151 7.12199 10.9851 7.34099 11.5151C7.56299 12.0491 7.29399 12.4171 6.98799 13.0591L7.93999 14.0111C8.59199 13.7021 8.95499 13.4381 9.48499 13.6581V13.6591C10.014 13.8781 10.084 14.3161 10.327 15.0001H11.673C11.916 14.3181 11.986 13.8791 12.518 13.6571H12.519C13.045 13.4381 13.402 13.6991 14.06 14.0111L15.012 13.0591C14.702 12.4081 14.439 12.0451 14.658 11.5151C14.877 10.9861 15.32 10.9151 16 10.6731V9.32612C15.312 9.08212 14.877 9.01312 14.659 8.48512C14.439 7.95512 14.7 7.59512 15.012 6.94012L14.06 5.98812C13.409 6.29812 13.046 6.56112 12.515 6.34112C11.986 6.12212 11.917 5.68412 11.673 5.00012V5.00012ZM11 11.6671C10.08 11.6671 9.33299 10.9201 9.33299 10.0001C9.33299 9.07912 10.08 8.33312 11 8.33312C11.92 8.33312 12.667 9.07912 12.667 10.0001C12.667 10.9201 11.92 11.6671 11 11.6671Z" fill="#B8AC79"/>
</g>
<defs>
<clipPath id="clip0">
<rect width="24" height="24" fill="white"/>
</clipPath>
</defs>
</svg>
