<svg width="24" height="24" viewBox="0 0 24 24" fill="none" xmlns="http://www.w3.org/2000/svg">
<g clip-path="url(#clip0)">
<path fill-rule="evenodd" clip-rule="evenodd" d="M1.981 8.444H22.019C22.417 8.444 22.766 8.708 22.875 9.092L23.98 12.996L24 13.135C24 13.344 23.873 13.537 23.67 13.615L23.669 13.616C23.429 13.708 23.158 13.611 23.034 13.385L21.89 11.314L21.562 19.281C21.545 19.684 21.215 20 20.813 20H20.812C20.419 20 20.096 19.694 20.066 19.302C19.998 18.437 19.817 16.369 19.762 15.55C19.74 15.21 19.491 15.01 19.221 15.01C18.979 15.01 18.707 15.21 18.684 15.55C18.629 16.369 18.448 18.437 18.38 19.302C18.35 19.694 18.028 20 17.634 20H17.633C17.231 20 16.901 19.684 16.884 19.281C16.798 17.201 16.449 10.545 16.449 10.545H14.78C14.78 10.545 14.431 17.201 14.345 19.281C14.328 19.683 13.998 20 13.596 20H13.595C13.201 20 12.879 19.694 12.849 19.302C12.781 18.437 12.6 16.369 12.545 15.55C12.522 15.21 12.25 15.01 12.008 15.01H12.004C11.762 15.01 11.489 15.21 11.467 15.55C11.412 16.369 11.231 18.437 11.163 19.302C11.133 19.694 10.81 20 10.417 20H10.416C10.014 20 9.684 19.684 9.667 19.281C9.581 17.201 9.232 10.545 9.232 10.545H7.551C7.551 10.545 7.202 17.201 7.116 19.281C7.099 19.684 6.769 20 6.367 20H6.366C5.972 20 5.65 19.694 5.62 19.302C5.552 18.437 5.371 16.369 5.316 15.55C5.293 15.21 5.021 15.01 4.779 15.01C4.509 15.01 4.26 15.21 4.238 15.55C4.183 16.369 4.002 18.437 3.934 19.302C3.904 19.694 3.581 20 3.188 20H3.187C2.785 20 2.455 19.684 2.438 19.281L2.11 11.314L0.966 13.385C0.842 13.611 0.571 13.708 0.331 13.616L0.33 13.615C0.127 13.537 0 13.344 0 13.135L0.02 12.996L1.125 9.092C1.234 8.708 1.583 8.444 1.981 8.444V8.444ZM5 4C6.104 4 7 4.896 7 6C7 7.104 6.104 8 5 8C3.896 8 3 7.104 3 6C3 4.896 3.896 4 5 4V4ZM19 4C17.896 4 17 4.896 17 6C17 7.104 17.896 8 19 8C20.104 8 21 7.104 21 6C21 4.896 20.104 4 19 4V4ZM12.006 4C13.11 4 14.006 4.896 14.006 6C14.006 7.104 13.11 8 12.006 8C10.902 8 10.006 7.104 10.006 6C10.006 4.896 10.902 4 12.006 4V4Z" fill="#B8AC79"/>
</g>
<defs>
<clipPath id="clip0">
<rect width="24" height="24" fill="white"/>
</clipPath>
</defs>
</svg>
